<?xml version="1.0" encoding="UTF-8"?>
<svg xmlns="http://www.w3.org/2000/svg"
     xmlns:xlink="http://www.w3.org/1999/xlink"
     xmlns:gadfly="http://www.gadflyjl.org/ns"
     version="1.2"
     width="264.55mm" height="158.73mm" viewBox="0 0 264.55 158.73"
     stroke="none"
     fill="#000000"
     stroke-width="0.3"
     font-size="3.88"
>
<g class="plotroot xscalable yscalable" id="img-d77bb746-1">
  <g font-size="3.88" font-family="'PT Sans','Helvetica Neue','Helvetica',sans-serif" fill="#564A55" stroke="#000000" stroke-opacity="0.000" id="img-d77bb746-2">
    <text x="132.67" y="147.12" text-anchor="middle" dy="0.6em">γ</text>
  </g>
  <g class="guide xlabels" font-size="2.82" font-family="'PT Sans Caption','Helvetica Neue','Helvetica',sans-serif" fill="#6C606B" id="img-d77bb746-3">
    <text x="18.29" y="140.45" text-anchor="middle" dy="0.6em">0</text>
    <text x="75.48" y="140.45" text-anchor="middle" dy="0.6em">1</text>
    <text x="132.67" y="140.45" text-anchor="middle" dy="0.6em">2</text>
    <text x="189.86" y="140.45" text-anchor="middle" dy="0.6em">3</text>
    <text x="247.06" y="140.45" text-anchor="middle" dy="0.6em">4</text>
  </g>
  <g class="guide colorkey" id="img-d77bb746-4">
    <g fill="#4C404B" font-size="2.82" font-family="'PT Sans','Helvetica Neue','Helvetica',sans-serif" id="img-d77bb746-5">
      <text x="252.87" y="73.22" dy="0.35em" id="img-d77bb746-6" class="color_y/a=2">y/a=2</text>
      <text x="252.87" y="76.84" dy="0.35em" id="img-d77bb746-7" class="color_y/a=3">y/a=3</text>
      <text x="252.87" y="80.47" dy="0.35em" id="img-d77bb746-8" class="color_y/a=4">y/a=4</text>
    </g>
    <g stroke="#000000" stroke-opacity="0.000" id="img-d77bb746-9">
      <rect x="250.06" y="72.31" width="1.81" height="1.81" id="img-d77bb746-10" class="color_y/a=2" fill="#00BFFF"/>
      <rect x="250.06" y="75.94" width="1.81" height="1.81" id="img-d77bb746-11" class="color_y/a=3" fill="#D4CA3A"/>
      <rect x="250.06" y="79.56" width="1.81" height="1.81" id="img-d77bb746-12" class="color_y/a=4" fill="#FF6DAE"/>
    </g>
    <g fill="#362A35" font-size="3.88" font-family="'PT Sans','Helvetica Neue','Helvetica',sans-serif" stroke="#000000" stroke-opacity="0.000" id="img-d77bb746-13">
      <text x="250.06" y="69.39" id="img-d77bb746-14">index</text>
    </g>
  </g>
<g clip-path="url(#img-d77bb746-15)">
  <g id="img-d77bb746-16">
    <g pointer-events="visible" opacity="1" fill="#000000" fill-opacity="0.000" stroke="#000000" stroke-opacity="0.000" class="guide background" id="img-d77bb746-17">
      <rect x="16.29" y="10.61" width="232.77" height="128.83" id="img-d77bb746-18"/>
    </g>
    <g class="guide ygridlines xfixed" stroke-dasharray="0.5,0.5" stroke-width="0.2" stroke="#D0D0E0" id="img-d77bb746-19">
      <path fill="none" d="M16.29,137.45 L 249.06 137.45" id="img-d77bb746-20"/>
      <path fill="none" d="M16.29,95.83 L 249.06 95.83" id="img-d77bb746-21"/>
      <path fill="none" d="M16.29,54.22 L 249.06 54.22" id="img-d77bb746-22"/>
      <path fill="none" d="M16.29,12.61 L 249.06 12.61" id="img-d77bb746-23"/>
    </g>
    <g class="guide xgridlines yfixed" stroke-dasharray="0.5,0.5" stroke-width="0.2" stroke="#D0D0E0" id="img-d77bb746-24">
      <path fill="none" d="M18.29,10.61 L 18.29 139.45" id="img-d77bb746-25"/>
      <path fill="none" d="M75.48,10.61 L 75.48 139.45" id="img-d77bb746-26"/>
      <path fill="none" d="M132.67,10.61 L 132.67 139.45" id="img-d77bb746-27"/>
      <path fill="none" d="M189.86,10.61 L 189.86 139.45" id="img-d77bb746-28"/>
      <path fill="none" d="M247.06,10.61 L 247.06 139.45" id="img-d77bb746-29"/>
    </g>
    <g class="plotpanel" id="img-d77bb746-30">
      <g stroke-width="0.3" fill="#000000" fill-opacity="0.000" class="geometry color_y/a=4" stroke-dasharray="none" stroke="#FF6DAE" id="img-d77bb746-31">
        <path fill="none" d="M18.29,114.33 L 18.86 114.33 19.43 114.33 20 114.34 20.57 114.35 21.14 114.37 21.72 114.38 22.29 114.4 22.86 114.43 23.43 114.45 24 114.48 24.58 114.51 25.15 114.55 25.72 114.59 26.29 114.63 26.86 114.67 27.44 114.72 28.01 114.77 28.58 114.82 29.15 114.87 29.72 114.93 30.3 114.99 30.87 115.05 31.44 115.12 32.01 115.18 32.58 115.25 33.16 115.33 33.73 115.4 34.3 115.48 34.87 115.56 35.44 115.64 36.01 115.72 36.59 115.81 37.16 115.9 37.73 115.99 38.3 116.08 38.87 116.17 39.45 116.27 40.02 116.36 40.59 116.46 41.16 116.56 41.73 116.67 42.31 116.77 42.88 116.87 43.45 116.98 44.02 117.09 44.59 117.2 45.17 117.31 45.74 117.42 46.31 117.53 46.88 117.65 47.45 117.76 48.03 117.88 48.6 117.99 49.17 118.11 49.74 118.23 50.31 118.35 50.89 118.47 51.46 118.59 52.03 118.71 52.6 118.83 53.17 118.95 53.74 119.07 54.32 119.19 54.89 119.32 55.46 119.44 56.03 119.56 56.6 119.69 57.18 119.81 57.75 119.93 58.32 120.06 58.89 120.18 59.46 120.3 60.04 120.43 60.61 120.55 61.18 120.67 61.75 120.8 62.32 120.92 62.9 121.04 63.47 121.16 64.04 121.29 64.61 121.41 65.18 121.53 65.76 121.65 66.33 121.77 66.9 121.89 67.47 122.01 68.04 122.13 68.61 122.25 69.19 122.36 69.76 122.48 70.33 122.6 70.9 122.71 71.47 122.83 72.05 122.94 72.62 123.06 73.19 123.17 73.76 123.28 74.33 123.4 74.91 123.51 75.48 123.62 76.05 123.73 76.62 123.84 77.19 123.94 77.77 124.05 78.34 124.16 78.91 124.26 79.48 124.37 80.05 124.47 80.63 124.58 81.2 124.68 81.77 124.78 82.34 124.88 82.91 124.98 83.49 125.08 84.06 125.18 84.63 125.28 85.2 125.37 85.77 125.47 86.34 125.56 86.92 125.66 87.49 125.75 88.06 125.84 88.63 125.93 89.2 126.02 89.78 126.11 90.35 126.2 90.92 126.29 91.49 126.38 92.06 126.46 92.64 126.55 93.21 126.63 93.78 126.72 94.35 126.8 94.92 126.88 95.5 126.96 96.07 127.04 96.64 127.12 97.21 127.2 97.78 127.28 98.36 127.35 98.93 127.43 99.5 127.51 100.07 127.58 100.64 127.65 101.21 127.73 101.79 127.8 102.36 127.87 102.93 127.94 103.5 128.01 104.07 128.08 104.65 128.14 105.22 128.21 105.79 128.28 106.36 128.34 106.93 128.41 107.51 128.47 108.08 128.54 108.65 128.6 109.22 128.66 109.79 128.72 110.37 128.78 110.94 128.84 111.51 128.9 112.08 128.96 112.65 129.02 113.23 129.07 113.8 129.13 114.37 129.18 114.94 129.24 115.51 129.29 116.09 129.35 116.66 129.4 117.23 129.45 117.8 129.5 118.37 129.55 118.94 129.6 119.52 129.65 120.09 129.7 120.66 129.75 121.23 129.8 121.8 129.85 122.38 129.89 122.95 129.94 123.52 129.98 124.09 130.03 124.66 130.07 125.24 130.12 125.81 130.16 126.38 130.2 126.95 130.24 127.52 130.29 128.1 130.33 128.67 130.37 129.24 130.41 129.81 130.45 130.38 130.49 130.96 130.52 131.53 130.56 132.1 130.6 132.67 130.64 133.24 130.67 133.81 130.71 134.39 130.74 134.96 130.78 135.53 130.81 136.1 130.85 136.67 130.88 137.25 130.91 137.82 130.95 138.39 130.98 138.96 131.01 139.53 131.04 140.11 131.07 140.68 131.1 141.25 131.13 141.82 131.16 142.39 131.19 142.97 131.22 143.54 131.25 144.11 131.27 144.68 131.3 145.25 131.33 145.83 131.35 146.4 131.38 146.97 131.41 147.54 131.43 148.11 131.46 148.69 131.48 149.26 131.51 149.83 131.53 150.4 131.55 150.97 131.58 151.54 131.6 152.12 131.62 152.69 131.64 153.26 131.67 153.83 131.69 154.4 131.71 154.98 131.73 155.55 131.75 156.12 131.77 156.69 131.79 157.26 131.81 157.84 131.83 158.41 131.85 158.98 131.86 159.55 131.88 160.12 131.9 160.7 131.92 161.27 131.93 161.84 131.95 162.41 131.97 162.98 131.98 163.56 132 164.13 132.01 164.7 132.03 165.27 132.05 165.84 132.06 166.41 132.07 166.99 132.09 167.56 132.1 168.13 132.12 168.7 132.13 169.27 132.14 169.85 132.15 170.42 132.17 170.99 132.18 171.56 132.19 172.13 132.2 172.71 132.21 173.28 132.22 173.85 132.23 174.42 132.24 174.99 132.25 175.57 132.26 176.14 132.27 176.71 132.28 177.28 132.29 177.85 132.3 178.43 132.31 179 132.32 179.57 132.33 180.14 132.33 180.71 132.34 181.29 132.35 181.86 132.36 182.43 132.36 183 132.37 183.57 132.38 184.14 132.38 184.72 132.39 185.29 132.39 185.86 132.4 186.43 132.4 187 132.41 187.58 132.41 188.15 132.42 188.72 132.42 189.29 132.42 189.86 132.43 190.44 132.43 191.01 132.43 191.58 132.44 192.15 132.44 192.72 132.44 193.3 132.44 193.87 132.45 194.44 132.45 195.01 132.45 195.58 132.45 196.16 132.45 196.73 132.45 197.3 132.45 197.87 132.45" id="img-d77bb746-32"/>
      </g>
      <g stroke-width="0.3" fill="#000000" fill-opacity="0.000" class="geometry color_y/a=3" stroke-dasharray="none" stroke="#D4CA3A" id="img-d77bb746-33">
        <path fill="none" d="M18.29,95.83 L 18.86 95.84 19.43 95.85 20 95.88 20.57 95.91 21.14 95.95 21.72 96 22.29 96.06 22.86 96.13 23.43 96.21 24 96.3 24.58 96.39 25.15 96.5 25.72 96.61 26.29 96.73 26.86 96.86 27.44 97 28.01 97.15 28.58 97.3 29.15 97.46 29.72 97.63 30.3 97.81 30.87 97.99 31.44 98.18 32.01 98.38 32.58 98.58 33.16 98.79 33.73 99.01 34.3 99.23 34.87 99.46 35.44 99.69 36.01 99.93 36.59 100.17 37.16 100.42 37.73 100.67 38.3 100.93 38.87 101.19 39.45 101.45 40.02 101.72 40.59 101.99 41.16 102.26 41.73 102.54 42.31 102.82 42.88 103.1 43.45 103.39 44.02 103.67 44.59 103.96 45.17 104.25 45.74 104.54 46.31 104.84 46.88 105.13 47.45 105.43 48.03 105.72 48.6 106.02 49.17 106.31 49.74 106.61 50.31 106.91 50.89 107.21 51.46 107.5 52.03 107.8 52.6 108.09 53.17 108.39 53.74 108.68 54.32 108.98 54.89 109.27 55.46 109.56 56.03 109.85 56.6 110.14 57.18 110.43 57.75 110.71 58.32 111 58.89 111.28 59.46 111.56 60.04 111.84 60.61 112.12 61.18 112.39 61.75 112.66 62.32 112.94 62.9 113.2 63.47 113.47 64.04 113.73 64.61 114 65.18 114.26 65.76 114.51 66.33 114.77 66.9 115.02 67.47 115.27 68.04 115.52 68.61 115.76 69.19 116 69.76 116.24 70.33 116.48 70.9 116.72 71.47 116.95 72.05 117.18 72.62 117.4 73.19 117.63 73.76 117.85 74.33 118.07 74.91 118.28 75.48 118.5 76.05 118.71 76.62 118.92 77.19 119.12 77.77 119.33 78.34 119.53 78.91 119.72 79.48 119.92 80.05 120.11 80.63 120.3 81.2 120.49 81.77 120.68 82.34 120.86 82.91 121.04 83.49 121.22 84.06 121.4 84.63 121.57 85.2 121.74 85.77 121.91 86.34 122.08 86.92 122.24 87.49 122.4 88.06 122.56 88.63 122.72 89.2 122.87 89.78 123.03 90.35 123.18 90.92 123.33 91.49 123.47 92.06 123.62 92.64 123.76 93.21 123.9 93.78 124.04 94.35 124.17 94.92 124.31 95.5 124.44 96.07 124.57 96.64 124.7 97.21 124.83 97.78 124.95 98.36 125.08 98.93 125.2 99.5 125.32 100.07 125.43 100.64 125.55 101.21 125.66 101.79 125.78 102.36 125.89 102.93 126 103.5 126.1 104.07 126.21 104.65 126.32 105.22 126.42 105.79 126.52 106.36 126.62 106.93 126.72 107.51 126.82 108.08 126.91 108.65 127 109.22 127.1 109.79 127.19 110.37 127.28 110.94 127.37 111.51 127.45 112.08 127.54 112.65 127.63 113.23 127.71 113.8 127.79 114.37 127.87 114.94 127.95 115.51 128.03 116.09 128.11 116.66 128.18 117.23 128.26 117.8 128.33 118.37 128.41 118.94 128.48 119.52 128.55 120.09 128.62 120.66 128.69 121.23 128.75 121.8 128.82 122.38 128.89 122.95 128.95 123.52 129.01 124.09 129.08 124.66 129.14 125.24 129.2 125.81 129.26 126.38 129.32 126.95 129.38 127.52 129.43 128.1 129.49 128.67 129.55 129.24 129.6 129.81 129.65 130.38 129.71 130.96 129.76 131.53 129.81 132.1 129.86 132.67 129.91 133.24 129.96 133.81 130.01 134.39 130.05 134.96 130.1 135.53 130.15 136.1 130.19 136.67 130.24 137.25 130.28 137.82 130.32 138.39 130.37 138.96 130.41 139.53 130.45 140.11 130.49 140.68 130.53 141.25 130.57 141.82 130.61 142.39 130.65 142.97 130.68 143.54 130.72 144.11 130.76 144.68 130.79 145.25 130.83 145.83 130.86 146.4 130.9 146.97 130.93 147.54 130.96 148.11 130.99 148.69 131.03 149.26 131.06 149.83 131.09 150.4 131.12 150.97 131.15 151.54 131.18 152.12 131.21 152.69 131.23 153.26 131.26 153.83 131.29 154.4 131.32 154.98 131.34 155.55 131.37 156.12 131.39 156.69 131.42 157.26 131.44 157.84 131.47 158.41 131.49 158.98 131.51 159.55 131.54 160.12 131.56 160.7 131.58 161.27 131.6 161.84 131.62 162.41 131.64 162.98 131.66 163.56 131.68 164.13 131.7 164.7 131.72 165.27 131.74 165.84 131.76 166.41 131.78 166.99 131.8 167.56 131.81 168.13 131.83 168.7 131.85 169.27 131.86 169.85 131.88 170.42 131.89 170.99 131.91 171.56 131.92 172.13 131.94 172.71 131.95 173.28 131.96 173.85 131.98 174.42 131.99 174.99 132 175.57 132.01 176.14 132.03 176.71 132.04 177.28 132.05 177.85 132.06 178.43 132.07 179 132.08 179.57 132.09 180.14 132.1 180.71 132.11 181.29 132.12 181.86 132.13 182.43 132.13 183 132.14 183.57 132.15 184.14 132.16 184.72 132.16 185.29 132.17 185.86 132.18 186.43 132.18 187 132.19 187.58 132.2 188.15 132.2 188.72 132.21 189.29 132.21 189.86 132.21 190.44 132.22 191.01 132.22 191.58 132.23 192.15 132.23 192.72 132.23 193.3 132.23 193.87 132.24 194.44 132.24 195.01 132.24 195.58 132.24 196.16 132.24 196.73 132.24 197.3 132.24 197.87 132.24" id="img-d77bb746-34"/>
      </g>
      <g stroke-width="0.3" fill="#000000" fill-opacity="0.000" class="geometry color_y/a=2" stroke-dasharray="none" stroke="#00BFFF" id="img-d77bb746-35">
        <path fill="none" d="M18.29,12.61 L 18.86 12.65 19.43 12.76 20 12.95 20.57 13.21 21.14 13.54 21.72 13.95 22.29 14.42 22.86 14.97 23.43 15.58 24 16.26 24.58 17.01 25.15 17.81 25.72 18.68 26.29 19.6 26.86 20.57 27.44 21.6 28.01 22.68 28.58 23.8 29.15 24.97 29.72 26.18 30.3 27.43 30.87 28.71 31.44 30.02 32.01 31.37 32.58 32.74 33.16 34.13 33.73 35.55 34.3 36.98 34.87 38.43 35.44 39.89 36.01 41.36 36.59 42.84 37.16 44.33 37.73 45.82 38.3 47.31 38.87 48.8 39.45 50.29 40.02 51.78 40.59 53.26 41.16 54.73 41.73 56.2 42.31 57.65 42.88 59.09 43.45 60.52 44.02 61.94 44.59 63.34 45.17 64.73 45.74 66.1 46.31 67.45 46.88 68.79 47.45 70.1 48.03 71.4 48.6 72.68 49.17 73.94 49.74 75.18 50.31 76.39 50.89 77.59 51.46 78.77 52.03 79.92 52.6 81.06 53.17 82.17 53.74 83.27 54.32 84.34 54.89 85.39 55.46 86.42 56.03 87.43 56.6 88.42 57.18 89.39 57.75 90.34 58.32 91.27 58.89 92.18 59.46 93.07 60.04 93.94 60.61 94.79 61.18 95.63 61.75 96.44 62.32 97.24 62.9 98.02 63.47 98.78 64.04 99.53 64.61 100.26 65.18 100.97 65.76 101.67 66.33 102.35 66.9 103.01 67.47 103.66 68.04 104.3 68.61 104.92 69.19 105.53 69.76 106.12 70.33 106.7 70.9 107.26 71.47 107.82 72.05 108.36 72.62 108.88 73.19 109.4 73.76 109.9 74.33 110.4 74.91 110.88 75.48 111.35 76.05 111.8 76.62 112.25 77.19 112.69 77.77 113.12 78.34 113.54 78.91 113.95 79.48 114.35 80.05 114.74 80.63 115.12 81.2 115.49 81.77 115.85 82.34 116.21 82.91 116.56 83.49 116.9 84.06 117.23 84.63 117.56 85.2 117.87 85.77 118.19 86.34 118.49 86.92 118.79 87.49 119.08 88.06 119.36 88.63 119.64 89.2 119.91 89.78 120.18 90.35 120.44 90.92 120.69 91.49 120.94 92.06 121.18 92.64 121.42 93.21 121.66 93.78 121.88 94.35 122.11 94.92 122.33 95.5 122.54 96.07 122.75 96.64 122.95 97.21 123.15 97.78 123.35 98.36 123.54 98.93 123.73 99.5 123.92 100.07 124.1 100.64 124.27 101.21 124.45 101.79 124.62 102.36 124.78 102.93 124.94 103.5 125.1 104.07 125.26 104.65 125.41 105.22 125.56 105.79 125.71 106.36 125.85 106.93 126 107.51 126.13 108.08 126.27 108.65 126.4 109.22 126.53 109.79 126.66 110.37 126.78 110.94 126.91 111.51 127.03 112.08 127.15 112.65 127.26 113.23 127.38 113.8 127.49 114.37 127.6 114.94 127.7 115.51 127.81 116.09 127.91 116.66 128.01 117.23 128.11 117.8 128.21 118.37 128.3 118.94 128.4 119.52 128.49 120.09 128.58 120.66 128.67 121.23 128.75 121.8 128.84 122.38 128.92 122.95 129 123.52 129.09 124.09 129.16 124.66 129.24 125.24 129.32 125.81 129.39 126.38 129.47 126.95 129.54 127.52 129.61 128.1 129.68 128.67 129.75 129.24 129.81 129.81 129.88 130.38 129.94 130.96 130.01 131.53 130.07 132.1 130.13 132.67 130.19 133.24 130.25 133.81 130.31 134.39 130.36 134.96 130.42 135.53 130.47 136.1 130.53 136.67 130.58 137.25 130.63 137.82 130.68 138.39 130.73 138.96 130.78 139.53 130.83 140.11 130.88 140.68 130.92 141.25 130.97 141.82 131.01 142.39 131.06 142.97 131.1 143.54 131.14 144.11 131.19 144.68 131.23 145.25 131.27 145.83 131.31 146.4 131.34 146.97 131.38 147.54 131.42 148.11 131.46 148.69 131.49 149.26 131.53 149.83 131.56 150.4 131.6 150.97 131.63 151.54 131.66 152.12 131.7 152.69 131.73 153.26 131.76 153.83 131.79 154.4 131.82 154.98 131.85 155.55 131.88 156.12 131.9 156.69 131.93 157.26 131.96 157.84 131.98 158.41 132.01 158.98 132.04 159.55 132.06 160.12 132.09 160.7 132.11 161.27 132.13 161.84 132.16 162.41 132.18 162.98 132.2 163.56 132.22 164.13 132.24 164.7 132.26 165.27 132.28 165.84 132.3 166.41 132.32 166.99 132.34 167.56 132.36 168.13 132.38 168.7 132.4 169.27 132.41 169.85 132.43 170.42 132.45 170.99 132.46 171.56 132.48 172.13 132.49 172.71 132.51 173.28 132.52 173.85 132.54 174.42 132.55 174.99 132.57 175.57 132.58 176.14 132.59 176.71 132.6 177.28 132.61 177.85 132.63 178.43 132.64 179 132.65 179.57 132.66 180.14 132.67 180.71 132.68 181.29 132.69 181.86 132.7 182.43 132.71 183 132.71 183.57 132.72 184.14 132.73 184.72 132.74 185.29 132.75 185.86 132.75 186.43 132.76 187 132.76 187.58 132.77 188.15 132.78 188.72 132.78 189.29 132.79 189.86 132.79 190.44 132.79 191.01 132.8 191.58 132.8 192.15 132.81 192.72 132.81 193.3 132.81 193.87 132.81 194.44 132.82 195.01 132.82 195.58 132.82 196.16 132.82 196.73 132.82 197.3 132.82 197.87 132.82" id="img-d77bb746-36"/>
      </g>
    </g>
  </g>
</g>
  <g class="guide ylabels" font-size="2.82" font-family="'PT Sans Caption','Helvetica Neue','Helvetica',sans-serif" fill="#6C606B" id="img-d77bb746-37">
    <text x="15.28" y="137.45" text-anchor="end" dy="0.35em" id="img-d77bb746-38">0</text>
    <text x="15.28" y="95.83" text-anchor="end" dy="0.35em" id="img-d77bb746-39">1</text>
    <text x="15.28" y="54.22" text-anchor="end" dy="0.35em" id="img-d77bb746-40">2</text>
    <text x="15.28" y="12.61" text-anchor="end" dy="0.35em" id="img-d77bb746-41">3</text>
  </g>
  <g font-size="3.88" font-family="'PT Sans','Helvetica Neue','Helvetica',sans-serif" fill="#564A55" stroke="#000000" stroke-opacity="0.000" id="img-d77bb746-42">
    <text x="8.81" y="73.03" text-anchor="middle" dy="0.35em" transform="rotate(-90, 8.81, 75.03)" id="img-d77bb746-43">-4πa^2σ/q</text>
  </g>
  <g font-size="3.88" font-family="'PT Sans','Helvetica Neue','Helvetica',sans-serif" fill="#564A55" stroke="#000000" stroke-opacity="0.000" id="img-d77bb746-44">
    <text x="132.67" y="5" text-anchor="middle" dy="0.6em" id="img-d77bb746-45">Surface Charge Density</text>
  </g>
</g>
<defs>
  <clipPath id="img-d77bb746-15">
  <path d="M16.29,10.61 L 249.06 10.61 249.06 139.45 16.29 139.45" />
</clipPath>
</defs>
</svg>
